<svg xmlns="http://www.w3.org/2000/svg" xml:space="preserve" viewBox="0 0 358.658 358.658">
  <path d="M296.309 317.73v40.68H62.349v-40.68c0-14.71 3.36-28.51 9.45-40.41 6.51-12.73 16.15-23.29 28.15-30.5.75-.45 1.51-.89 2.28-1.33 1.16-.64 2.35-1.26 3.56-1.83.8-.38 1.6-.75 2.42-1.12h.01c2.05-.89 4.15-1.69 6.31-2.41 1.72-.57 3.47-1.07 5.25-1.51h.02c1.48-.37 2.98-.69 4.51-.98 4.59-.85 9.37-1.29 14.31-1.29h.02l40.69 24 40.69-24c6.59 0 12.89.79 18.84 2.27 7.16 1.77 13.8 4.56 19.85 8.2 23.22 13.95 37.6 40.48 37.6 70.91z" style="fill:#f3d8b6"/>
  <path d="M296.308 317.734v40.68h-116.98v-98.06l36-21.23 4.69-2.77c6.59 0 12.89.78 18.84 2.27 7.16 1.77 13.8 4.55 19.85 8.2 23.22 13.95 37.6 40.48 37.6 70.91z" style="fill:#eec8a2"/>
  <path d="M258.705 358.658V243.063c-6.043-3.641 8.31-6.43 1.156-8.196l-21 71.339h-99.065l-40-71.339c-7.154 1.766 6.198 4.554.156 8.196v115.594l158.753.001z" style="fill:#682234"/>
  <path d="m258.861 234.868-40 71.339h-39.533v52.451h79.377V243.063c-6.043-3.641 7.309-6.429.156-8.195z" style="fill:#521627"/>
  <path d="M289.469 141.269C289.469 59.796 246.723 0 178.829 0S68.189 59.796 68.189 141.269c0 21.095-14.08 42.87 8.3 65.903a29.308 29.308 0 0 0-5.361 16.934c0 16.268 13.188 29.456 29.456 29.456a29.4 29.4 0 0 0 9.939-1.723c19.56 27.308 43.932 37.6 68.307 37.6s48.747-10.292 68.307-37.601a29.4 29.4 0 0 0 9.939 1.724c16.268 0 29.456-13.188 29.456-29.456a29.315 29.315 0 0 0-5.361-16.934c22.378-23.033 8.298-44.808 8.298-65.903z" style="fill:#c64832"/>
  <path d="M289.469 141.269c0-81.272-42.538-140.968-110.14-141.262V291.94c24.208-.402 48.38-12.98 67.807-40.101a29.4 29.4 0 0 0 9.939 1.724c16.268 0 29.456-13.188 29.456-29.456a29.315 29.315 0 0 0-5.361-16.934c22.379-23.034 8.299-44.809 8.299-65.904z" style="fill:#b2332d"/>
  <path d="M211.786 300.44c5.945-7.414 10.232-18.847 10.232-37.107 0 0-14.458-18.417-14.458-81.376h-57.462c0 62.959-14.458 81.376-14.458 81.376 0 18.26 4.287 29.693 10.232 37.107h65.914z" style="fill:#f3d8b6"/>
  <path d="M211.786 300.44c5.945-7.414 10.232-18.847 10.232-37.107 0 0-14.458-18.417-14.458-81.376h-28.231V300.44h32.457z" style="fill:#eec8a2"/>
  <path d="M116.255 80.513c-4.453 33.245.539 75.661 6.918 87.439 9.043 16.694 29.221 38.957 55.657 38.957 26.431 0 46.607-22.262 55.652-38.957 3.915-7.229 7.307-26.002 8.315-47.109-11.94-.838-107.03-8.481-126.542-40.33z" style="fill:#f3dbc4"/>
  <path d="m239.644 120.603-.18-.014-.81-.067-.344-.029a212.784 212.784 0 0 1-1.289-.111l-.699-.062-.701-.063a430.084 430.084 0 0 1-2.208-.207l-.87-.084-.757-.075c-.308-.031-.617-.061-.935-.094l-.793-.081-.99-.103-.835-.089-1.028-.111-.881-.097-1.071-.12-.935-.107a374.963 374.963 0 0 1-2.076-.243l-1.112-.134-1.043-.128a347.28 347.28 0 0 1-1.128-.141l-1.093-.139-1.136-.147-1.155-.152a334.392 334.392 0 0 1-2.351-.318l-1.128-.157a483.193 483.193 0 0 1-2.422-.346c-.431-.063-.862-.125-1.298-.19-.379-.056-.761-.114-1.143-.172-.456-.069-.911-.137-1.372-.208l-1.099-.171c-.48-.075-.96-.15-1.445-.228l-1.074-.174-1.517-.248c-.333-.055-.669-.113-1.004-.169-.538-.091-1.076-.181-1.618-.274-.31-.053-.623-.109-.935-.163a309.58 309.58 0 0 1-1.71-.301c-.282-.05-.566-.103-.848-.154-.61-.111-1.22-.221-1.834-.335l-.615-.116c-.693-.13-1.387-.261-2.085-.396l-.201-.04a347.373 347.373 0 0 1-10.551-2.211v95.258c26.185-.279 46.166-22.355 55.154-38.943 3.915-7.229 7.307-26.002 8.315-47.11-.737-.048-1.808-.127-3.15-.236z" style="fill:#edceae"/>
</svg>