<svg xmlns="http://www.w3.org/2000/svg" xml:space="preserve" viewBox="0 0 358.898 358.898">
  <path d="M290.089 141.269C290.089 59.796 247.343 0 179.449 0 111.932 0 69.293 59.135 68.82 139.914a34.795 34.795 0 0 0-7.689-.865c-19.179 0-34.727 15.548-34.727 34.727 0 15.758 10.499 29.056 24.88 33.302.335 18.89 15.742 34.102 34.711 34.102a34.549 34.549 0 0 0 16.063-3.941c4.993 13.055 17.63 22.329 32.439 22.329 19.179 0 34.727-15.548 34.727-34.727 0-2.803-.341-5.524-.968-8.135 44.084 1.686 90.604-6.62 110.677-24.92 26.392-24.058 11.156-28.579 11.156-50.517z" style="fill:#682234"/>
  <path d="M332.494 173.776c0-19.179-15.548-34.727-34.727-34.727-2.644 0-5.215.305-7.689.865C289.605 59.135 246.965 0 179.449 0l-.094.001v216.92c3.768.001 7.536-.071 11.286-.214a34.786 34.786 0 0 0-.968 8.135c0 19.179 15.548 34.727 34.727 34.727 14.81 0 27.447-9.274 32.439-22.329a34.567 34.567 0 0 0 16.063 3.941c18.97 0 34.376-15.212 34.711-34.102 14.382-4.247 24.881-17.545 24.881-33.303z" style="fill:#581a2b"/>
  <path d="M207.778 180.756H151.119c0 74.552-36.43 67.808-36.43 67.808 0 47.368 51.162 62.392 63.313 66.806v1.537s.533-.11 1.446-.359c.912.249 1.446.359 1.446.359v-1.537c12.151-4.414 63.313-19.439 63.313-66.806.001 0-36.429 6.744-36.429-67.808z" style="fill:#f3d8b6"/>
  <path d="M207.778 180.756h-28.329v135.792c.912.249 1.446.359 1.446.359v-1.537c12.151-4.414 63.313-19.439 63.313-66.806 0 0-36.43 6.744-36.43-67.808z" style="fill:#eec8a2"/>
  <path d="M296.43 318.004v40.681H62.467v-40.681c0-30.431 14.377-56.963 37.605-70.913a71.627 71.627 0 0 1 19.844-8.196c5.953-1.488 12.254-2.272 18.842-2.272l40.691 24.002 40.691-24.002c6.588 0 12.889.784 18.842 2.272a71.584 71.584 0 0 1 19.844 8.196c23.227 13.95 37.604 40.482 37.604 70.913z" style="fill:#f3d8b6"/>
  <path d="M296.429 318.005v40.68h-116.98v-98.06l36-21.23 4.69-2.77c6.59 0 12.89.78 18.84 2.27 7.16 1.77 13.8 4.55 19.85 8.2 23.22 13.95 37.6 40.48 37.6 70.91z" style="fill:#eec8a2"/>
  <path d="M180.354 120.925h-64.988c.84 22.166 4.35 42.212 8.428 49.74 9.042 16.694 29.221 38.957 55.657 38.957 26.431 0 46.607-22.262 55.652-38.957 4.077-7.528 7.588-27.574 8.429-49.74h-63.178z" style="fill:#f3dbc4"/>
  <path d="M180.354 120.925h-1v88.694l.096.002c26.431 0 46.607-22.263 55.652-38.957 4.077-7.528 7.588-27.573 8.429-49.74h-63.177v.001z" style="fill:#edceae"/>
  <path d="M224.933 267.897h-2.955c-7.109 15.907-23.023 26.993-41.529 26.993-25.129 0-45.5-20.43-45.5-45.632 0-4.463.65-8.772 1.841-12.849-5.881.139-11.524.899-16.882 2.241a71.534 71.534 0 0 0-19.85 8.2c-23.22 13.95-37.6 40.48-37.6 70.91v5.97h37.306l-.306.5v34.667h160V324.23l-34.525-56.333z" style="fill:#aec7ea"/>
  <path d="M296.439 317.761c0-30.43-14.38-56.96-37.6-70.91a71.534 71.534 0 0 0-19.85-8.2c-4.74-1.187-9.706-1.915-14.86-2.165a45.747 45.747 0 0 1 1.82 12.773c0 25.202-20.371 45.632-45.5 45.632-.332 0-.66-.018-.99-.025v64.032h80v-34.667l-.306-.5h37.286v-5.97z" style="fill:#96b3d4"/>
</svg>