<svg xmlns="http://www.w3.org/2000/svg" xml:space="preserve" viewBox="0 0 331.108 331.108">
  <path d="M248.039 236.042c-18.667-6.681-51.458-11.736-51.458-81.376h-63.462c0 69.64-32.791 74.695-51.458 81.376 0 47.368 68.832 48.824 80.688 53.239v1.537s.922-.188 2.501-.68c1.579.492 2.501.68 2.501.68v-1.537c11.856-4.415 80.688-5.872 80.688-53.239z" style="fill:#f3d8b6"/>
  <path d="M196.582 154.666h-31.481v135.547c1.421.433 2.251.604 2.251.604v-1.537c11.855-4.414 80.688-5.871 80.688-53.239-18.667-6.68-51.458-11.735-51.458-81.375z" style="fill:#eec8a2"/>
  <path d="M165.103 176.828c-27.454 0-48.409-23.119-57.799-40.456s-15.888-79.445 4.34-106.897c19.808-26.883 53.459-13.838 53.459-13.838s33.649-13.045 53.458 13.838c20.226 27.452 13.726 89.56 4.335 106.897-9.392 17.337-30.345 40.456-57.793 40.456z" style="fill:#f3dbc4"/>
  <path d="M218.561 29.476c-19.81-26.883-53.458-13.838-53.458-13.838h-.002v161.191h.002c27.449 0 48.401-23.119 57.794-40.456 9.39-17.337 15.89-79.445-4.336-106.897z" style="fill:#edceae"/>
  <path d="M222.556 25.321c-2.159.08-12.282-31.303-39.282-24.303-18.537 4.806-20.877 7.419-28.12 9.463-29.41-9.014-57.539 14.472-56.495 36.488 1.759 37.07-4.778 36.505-.295 49.454s8.466 23.407 8.466 23.407.996 3.565 2.988-16.854-4.705-31.379 11.137-31.379c52.452 0-19.698 20.372 13.952 20.372 33.391 0 59.203-27.381 74.92-29.372 15.716-1.992 9.145 19.96 11.137 40.379s2.988 16.854 2.988 16.854 8.92-9.712 8.466-23.407c-.51-15.454 6.37-71.704-9.862-71.102z" style="fill:#e1a98c"/>
  <path d="M222.556 25.322c-2.159.08-12.282-31.303-39.282-24.303-9.171 2.377-14.375 4.218-18.173 5.719V85.04c18.973-8.253 34.142-21.103 44.726-22.443 15.717-1.992 9.145 19.96 11.137 40.379s2.988 16.854 2.988 16.854 8.92-9.712 8.466-23.407c-.51-15.454 6.37-71.704-9.862-71.101z" style="fill:#d2987b"/>
  <path d="M207.267 101.856h-27.689a8.573 8.573 0 0 0-3.431.713l-10.874 3.873-10.874-3.873a8.573 8.573 0 0 0-3.431-.713H123.28c-5.509 0-7.411 9.474-7.411 9.474 0 12.532 9.191 22.692 23.756 22.692 8.882 0 17.409-9.44 22.649-17.081h6c5.24 7.641 13.768 17.081 22.649 17.081 14.565 0 23.756-10.16 23.756-22.692-.001 0-1.903-9.474-7.412-9.474z" style="fill:#a7b8d4"/>
  <path d="M207.267 101.856h-27.689a8.573 8.573 0 0 0-3.431.713l-11.041 3.813v10.559h3.167c5.24 7.641 13.768 17.081 22.649 17.081 14.565 0 23.756-10.16 23.756-22.692 0 0-1.902-9.474-7.411-9.474z" style="fill:#8aa4c2"/>
  <path d="M245.383 219.513c-2.201-1.327-5.416-2.538-8.955-3.63-5.291-1.905-11.248-3.442-15.795-4.565-1.89-.473-9.146-.102-15.118-13.184h-79.463c-5.328 13.132-11.814 12.767-13.484 13.184-7.154 1.766-20.802 4.554-26.844 8.195-23.228 13.951-40.605 40.482-40.605 70.914v40.681h240.87v-40.681c-.001-30.432-17.378-56.963-40.606-70.914z" style="fill:#682234"/>
  <path d="M245.383 219.513c-2.201-1.327-5.416-2.538-8.955-3.63-5.291-1.905-11.248-3.442-15.795-4.565-1.89-.473-9.146-.102-15.118-13.184h-40.867v132.974H285.989v-40.681c-.001-30.432-17.378-56.963-40.606-70.914z" style="fill:#581a2b"/>
  <path d="M231.779 102.653c-.725 14.745-22.425 29.324-29.599 39.061-16.801 22.803-37.079 3.255-37.079 3.255s-19.826 19.548-36.629-3.255c-7.173-9.735-28.871-24.311-29.596-39.054-1.19 20.863 11.665 42.273 16.381 50.979 7.973 14.719 26.764 34.348 50.072 34.348 23.304 0 42.094-19.629 50.068-34.348 4.716-8.707 17.572-30.121 16.382-50.986z" style="fill:#e1a98c"/>
  <path d="M231.779 102.653c-.725 14.745-22.424 29.324-29.599 39.061-16.801 22.803-37.08 3.255-37.08 3.255v43.012c.076 0 .152.006.228.006 23.304 0 42.094-19.628 50.068-34.348 4.717-8.707 17.573-30.121 16.383-50.986z" style="fill:#d2987b"/>
  <ellipse cx="227.275" cy="109.116" rx="17.187" ry="10.048" style="fill:#edceae" transform="rotate(-69.249 227.282 109.12)"/>
  <ellipse cx="102.923" cy="109.124" rx="17.187" ry="10.048" style="fill:#f3dbc4" transform="rotate(69.249 102.926 109.127)"/>
</svg>