<svg xmlns="http://www.w3.org/2000/svg" xml:space="preserve" viewBox="0 0 328.803 328.803">
  <path d="M284.382 288.122v40.681H44.419v-40.681c0-30.431 17.377-56.963 40.605-70.913 6.043-3.641 19.69-6.43 26.844-8.196 5.953-1.488 12.254-2.272 18.842-2.272l34.596 24.002 33.691-24.002c6.588 0 14.983.784 20.937 2.272 7.154 1.766 17.802 4.554 23.844 8.196 23.227 13.95 40.604 40.482 40.604 70.913z" style="fill:#f3d8b6"/>
  <path d="M243.777 217.208c-6.042-3.641-16.69-6.429-23.844-8.196-5.953-1.488-14.348-2.272-20.937-2.272l-33.691 24.001-.906-.628v98.688h119.982V288.12c.001-30.429-17.376-56.961-40.604-70.912z" style="fill:#eec8a2"/>
  <path d="M247.589 233.25c-18.667-6.681-51.458-11.736-51.458-81.376h-63.462c0 69.64-32.791 74.695-51.458 81.376 0 47.368 68.832 48.824 80.688 53.239v1.537s.922-.188 2.501-.68c1.579.492 2.501.68 2.501.68v-1.537c11.856-4.414 80.688-5.871 80.688-53.239z" style="fill:#f3d8b6"/>
  <path d="M196.131 151.874H164.4v135.472c1.579.492 2.501.68 2.501.68v-1.537c11.856-4.414 80.688-5.871 80.688-53.238-18.667-6.682-51.458-11.736-51.458-81.377z" style="fill:#eec8a2"/>
  <path d="M88.734 304.026v24.777h146.667v-24.777h49.435v-15.904c0-30.431-17.377-56.963-40.605-70.914-3.929-2.368-11.069-4.793-17.552-6.689-8.072 24.392-32.894 42.159-62.277 42.159s-54.205-17.768-62.277-42.159c-6.484 1.896-13.623 4.321-17.552 6.689-23.228 13.951-40.605 40.482-40.605 70.914v15.904h44.766z" style="fill:#d7734a"/>
  <path d="M244.23 217.208c-3.929-2.368-11.069-4.793-17.552-6.689-8.072 24.392-32.894 42.159-62.277 42.159v76.124h71v-24.777h49.435v-15.904c-.001-30.43-17.378-56.962-40.606-70.913z" style="fill:#d35d3b"/>
  <path d="M214.323 311.362h-9.045c-8.057 0-14.589-6.532-14.589-14.589v-19.258h38.224v19.258c-.001 8.057-6.533 14.589-14.59 14.589z" style="fill:#ffe477"/>
  <path d="M164.402 176.828c-27.454 0-48.409-23.119-57.799-40.456s-15.888-79.445 4.34-106.897c19.808-26.883 53.459-13.838 53.459-13.838s33.649-13.045 53.458 13.838c20.226 27.452 13.726 89.56 4.335 106.897-9.392 17.337-30.344 40.456-57.793 40.456z" style="fill:#f3dbc4"/>
  <path d="M217.86 29.475c-19.81-26.883-53.458-13.838-53.458-13.838h-.002v161.192h.002c27.449 0 48.401-23.119 57.794-40.456 9.39-17.337 15.891-79.445-4.336-106.898z" style="fill:#edceae"/>
  <path d="M221.855 25.321c-2.159.08-12.282-31.303-39.282-24.303-18.537 4.806-20.877 7.419-28.12 9.463-29.41-9.014-57.539 14.472-56.495 36.488 1.759 37.07-4.778 36.505-.295 49.454s8.466 23.407 8.466 23.407.996 3.565 2.988-16.854-4.705-31.379 11.137-31.379c52.452 0-19.698 20.372 13.952 20.372 33.391 0 59.203-27.381 74.92-29.372 15.716-1.992 9.145 19.96 11.137 40.379s2.988 16.854 2.988 16.854 8.92-9.712 8.466-23.407c-.51-15.454 6.37-71.704-9.862-71.102z" style="fill:#682234"/>
  <path d="M221.855 25.322c-2.159.08-12.282-31.303-39.282-24.303-9.171 2.378-14.375 4.218-18.173 5.719V85.04c18.973-8.253 34.142-21.102 44.726-22.443 15.717-1.992 9.145 19.96 11.137 40.379s2.988 16.854 2.988 16.854 8.92-9.712 8.466-23.407c-.51-15.454 6.37-71.704-9.862-71.101z" style="fill:#581a2b"/>
  <ellipse cx="102.222" cy="109.124" rx="17.187" ry="10.048" style="fill:#f3dbc4" transform="rotate(69.249 102.225 109.127)"/>
  <ellipse cx="226.574" cy="109.116" rx="17.187" ry="10.048" style="fill:#edceae" transform="rotate(-69.249 226.581 109.12)"/>
</svg>