<svg xmlns="http://www.w3.org/2000/svg" xml:space="preserve" viewBox="0 0 366.972 366.972">
  <path d="m277.967 160.938-.001-.701c0-75.654-75.543-131.179-95.21-131.179-21.667 0-93.75 55.525-93.75 131.179l-.001.701c-15.37 6.067-26.25 21.042-26.25 38.568 0 22.898 18.562 41.46 41.46 41.46 30.865 0 55.593 17.084 78.54 17.009s48.214-17.009 80-17.009c21.805 0 41.46-18.562 41.46-41.46.002-17.527-10.878-32.501-26.248-38.568z" style="fill:#a0756f"/>
  <path d="M277.967 160.938v-.701c0-74.961-74.158-130.151-94.647-131.155v228.879c22.797-.345 47.91-16.995 79.437-16.995 21.805 0 41.46-18.562 41.46-41.46 0-17.527-10.88-32.502-26.25-38.568z" style="fill:#8c6762"/>
  <path d="M226.675 301.729s-14.458-18.417-14.458-81.376h-57.462c0 62.959-14.458 81.376-14.458 81.376 0 47.368 28.832 48.824 40.688 53.239v1.537s.922-.188 2.501-.68c1.579.492 2.501.68 2.501.68v-1.537c11.856-4.415 40.688-5.872 40.688-53.239z" style="fill:#f3d8b6"/>
  <path d="M212.218 220.353h-26.23l-2.667-.024V355.8c1.579.492 2.667.704 2.667.704v-1.537c11.856-4.414 40.688-5.871 40.688-53.239-.001.001-14.458-18.416-14.458-81.375z" style="fill:#eec8a2"/>
  <path d="M262.864 274.209a71.627 71.627 0 0 0-19.844-8.196c-4.824-1.206-17.048-1.949-25.018-2.188-8.189 8.543-20.609 13.994-34.515 13.994s-26.326-5.451-34.515-13.994c-7.969.239-20.194.982-25.018 2.188a71.584 71.584 0 0 0-19.844 8.196c-23.228 13.951-37.605 40.482-37.605 70.913v21.849h233.963v-21.849c0-30.431-14.377-56.962-37.604-70.913z" style="fill:#dfe0f2"/>
  <path d="M262.864 274.209a71.627 71.627 0 0 0-19.844-8.196c-4.824-1.206-17.048-1.949-25.018-2.188-8.189 8.543-20.608 13.994-34.515 13.994-.056 0-.111-.004-.167-.004v89.156h117.148v-21.849c0-30.431-14.377-56.963-37.604-70.913z" style="fill:#c6c8d7"/>
  <path d="M113.487 366.972v-50h140v50" style="fill:#aec7ea"/>
  <path d="M183.32 316.972h70.167v50H183.32z" style="fill:#92a6c1"/>
  <path d="M236.828 77.777a84.782 84.782 0 0 1 3.117 6.287c-.941-2.272-1.977-4.379-3.117-6.287zM157.891 121.454a275.645 275.645 0 0 1-4.497-8.014c-6.77 14.695-21.411 32.411-33.6 40.652 1.26 19.085 4.426 35.578 8.038 42.246 9.042 16.694 29.22 38.956 55.657 38.956 26.431 0 46.607-22.262 55.652-38.956 3.337-6.161 6.293-20.711 7.719-37.943-11.282-.696-70.83-5.81-88.969-36.941z" style="fill:#f3dbc4"/>
  <path d="M183.32 143.195v92.095c.057 0 .112.004.168.004 26.431 0 46.607-22.262 55.652-38.956 3.337-6.162 6.294-20.712 7.719-37.944-7.842-.483-39.136-3.113-63.539-15.199zM236.826 77.773a84.944 84.944 0 0 1 3.12 6.293c-.942-2.275-1.979-4.383-3.12-6.293z" style="fill:#edceae"/>
  <path d="M110.987 0h145v89.299h-145z" style="fill:#dfe0f2"/>
  <path d="M183.32 0h72.667v89.299H183.32z" style="fill:#c6c8d7"/>
  <path d="M225.186 330.345a42.954 42.954 0 0 0-1.114-3.457 55.01 55.01 0 0 0-1.727-4.139c-1.422-3.064-3.287-6.259-5.392-9.233-2.154-3.066-4.729-6.106-7.662-9.044a73.84 73.84 0 0 0-6.074-5.397c17.87-4.886 27.77-17.087 27.77-35.103h-15c0 14.93-10.935 22.5-32.5 22.5s-32.5-7.57-32.5-22.5h-15c0 18.015 9.9 30.217 27.77 35.103a73.815 73.815 0 0 0-6.083 5.404c-2.925 2.931-5.5 5.971-7.65 9.032-2.107 2.979-3.974 6.173-5.396 9.241a55.268 55.268 0 0 0-1.728 4.14 43.262 43.262 0 0 0-1.107 3.435c-.562 2-.739 3.329-.747 3.385l-.339 2.583 2.583-.339c.056-.007 1.385-.185 3.367-.742a43.81 43.81 0 0 0 3.456-1.114 55.374 55.374 0 0 0 4.139-1.726c3.062-1.42 6.256-3.286 9.233-5.392 3.066-2.154 6.107-4.73 9.045-7.662 2.929-2.953 5.497-5.998 7.633-9.045 1.205-1.708 2.098-3.511 3.105-5.288 1.007 1.777 2.336 3.578 3.539 5.283 2.14 3.052 4.708 6.097 7.644 9.057 2.931 2.925 5.972 5.5 9.032 7.651 2.983 2.109 6.178 3.975 9.241 5.396a55.648 55.648 0 0 0 4.141 1.727c1.268.461 2.429.835 3.436 1.108 1.999.561 3.328.739 3.384.746l2.583.339-.339-2.583c-.009-.055-.186-1.384-.743-3.366z" style="fill:#cc2f3f"/>
  <path d="M225.186 330.345a42.954 42.954 0 0 0-1.114-3.457 55.01 55.01 0 0 0-1.727-4.139c-1.422-3.064-3.287-6.259-5.392-9.233-2.154-3.066-4.729-6.106-7.662-9.044a73.84 73.84 0 0 0-6.074-5.397c17.87-4.886 27.77-17.087 27.77-35.103h-15c0 14.93-10.935 22.5-32.5 22.5l-.219-.002v18.517c1.007 1.777 2.336 3.578 3.539 5.283 2.14 3.052 4.708 6.097 7.644 9.057 2.931 2.925 5.972 5.5 9.032 7.651 2.983 2.109 6.178 3.975 9.241 5.396a55.648 55.648 0 0 0 4.141 1.727c1.268.461 2.429.835 3.436 1.108 1.999.561 3.328.739 3.384.746l2.583.339-.339-2.583c-.009-.055-.186-1.384-.743-3.366z" style="fill:#b32a38"/>
</svg>