<svg xmlns="http://www.w3.org/2000/svg" fill="none" viewBox="0 0 12 12">
  <path fill="#ffffff" fill-rule="evenodd" d="M6 .5C2.961.5.5 3.023.5 6.138c0 2.492 1.577 4.604 3.761 5.351.274.052.375-.12.375-.273l-.007-.959c-1.53.34-1.853-.754-1.853-.754-.25-.651-.611-.828-.611-.828-.5-.35.037-.342.037-.342.55.041.844.581.844.581.49.862 1.286.613 1.6.468.05-.364.193-.613.348-.755-1.219-.138-2.502-.623-2.502-2.783 0-.616.213-1.118.567-1.512-.057-.146-.246-.717.05-1.492 0 0 .463-.152 1.513.578A5.214 5.214 0 0 1 6 3.228c.466.003.939.065 1.378.19 1.05-.73 1.512-.578 1.512-.578.3.775.112 1.35.054 1.492.351.394.564.896.564 1.512 0 2.167-1.286 2.641-2.512 2.783.196.173.375.52.375 1.045 0 .755-.007 1.36-.007 1.547 0 .153.098.326.378.27C9.927 10.742 11.5 8.63 11.5 6.142 11.5 3.023 9.039.5 6 .5Z" clip-rule="evenodd"/>
</svg>
