<svg xmlns="http://www.w3.org/2000/svg" shape-rendering="geometricPrecision" text-rendering="geometricPrecision" viewBox="0 0 800 400">
  <path fill="#6e47ba" stroke="#6e47ba" stroke-width="1.6" d="M1.115 149.488q259.4-121.746 400-107.246c140.6 14.5 180.663 60.105 400 86.033q219.337 25.927 0 36.534-380.535-34.177-464.21-54.212T1.114 201.115v-51.627Z" paint-order="fill markers stroke"/>
  <path fill="#5ce37a" d="M6.916 197.643Q269.434 61.19 375.796 70.59c106.362 9.4 229.813 64.82 446.663 90.747q216.85 25.928-4.845 50.677-344-79.256-448.89-87.211C263.836 116.848 228.48 163.694 6.917 237.942q-221.564 74.247 0-40.3Z"/>
  <path fill="#f3a738" stroke="#f3a738" stroke-width="1.6" d="M-2.27 228.273Q326.883 88.043 426.715 111.6c99.833 23.556 152.03 57.55 360.5 86.033q208.47 28.483 0 36.534c-257.152-29.364-332.014-106.108-482.91-71.174q-150.897 34.934-380.822 131.28l74.247-65.999Z" paint-order="fill markers stroke"/>
  <path fill="#d84b3b" stroke="#d84b3b" stroke-width="1.6" d="M-5.704 257.913q219.55-83.74 300.525-108.425c80.975-24.685 93.139-28.458 194.458 0s198.39 82.146 322.34 70.132q123.949-12.014 76.206 20.615-48.66 39.881-200.553 5.893c-151.894-33.989-224.176-78.25-287.272-78.25S232.36 201.09-23.382 293.73s17.678-35.818 17.678-35.818Z"/>
</svg>